<?xml version="1.0" encoding="iso-8859-1"?>
<!-- Generator: Adobe Illustrator 19.0.0, SVG Export Plug-In . SVG Version: 6.00 Build 0)  -->
<svg version="1.1" id="Capa_1" xmlns="http://www.w3.org/2000/svg" xmlns:xlink="http://www.w3.org/1999/xlink" x="0px" y="0px"
	 viewBox="0 0 512 512" style="enable-background:new 0 0 512 512;" xml:space="preserve">
<g>
	<g>
		<path d="M470.08,141.6c-16.949-21.882-39.833-33.933-64.438-33.933c-24.604,0-47.489,12.051-64.437,33.933
			c-3.897,5.031-7.36,10.459-10.384,16.196c-3.025-5.738-6.487-11.165-10.384-16.196c-16.949-21.882-39.832-33.933-64.437-33.933
			c-24.604,0-47.489,12.051-64.437,33.933c-3.897,5.031-7.36,10.459-10.384,16.196c-3.024-5.738-6.487-11.165-10.384-16.196
			c-16.948-21.882-39.833-33.933-64.437-33.933S58.869,119.718,41.921,141.6C25.85,162.346,17,189.716,17,218.667
			c0,3.923,0.177,7.814,0.498,11.666h477.005c0.32-3.852,0.497-7.743,0.497-11.666C495,189.716,486.15,162.347,470.08,141.6z"/>
	</g>
</g>
<g>
	<g>
		<polygon points="0,260.333 0,329.667 16.032,329.667 30.254,404.333 161.746,404.333 175.968,329.667 176.032,329.667 
			190.254,404.333 321.746,404.333 335.968,329.667 336.031,329.667 350.254,404.333 481.746,404.333 495.968,329.667 512,329.667 
			512,260.333 		"/>
	</g>
</g>
<g>
</g>
<g>
</g>
<g>
</g>
<g>
</g>
<g>
</g>
<g>
</g>
<g>
</g>
<g>
</g>
<g>
</g>
<g>
</g>
<g>
</g>
<g>
</g>
<g>
</g>
<g>
</g>
<g>
</g>
</svg>
