<?xml version="1.0" encoding="iso-8859-1"?>
<!-- Generator: Adobe Illustrator 19.0.0, SVG Export Plug-In . SVG Version: 6.00 Build 0)  -->
<svg version="1.1" id="Capa_1" xmlns="http://www.w3.org/2000/svg" xmlns:xlink="http://www.w3.org/1999/xlink" x="0px" y="0px"
	 viewBox="0 0 512 512" style="enable-background:new 0 0 512 512;" xml:space="preserve">
<g>
	<g>
		<path d="M493.718,237.405L493.718,237.405c0.832-6.137,1.282-12.395,1.282-18.738c0-28.951-8.85-56.32-24.92-77.067
			c-16.949-21.882-39.833-33.933-64.438-33.933c-24.604,0-47.489,12.051-64.437,33.933c-3.897,5.031-7.36,10.459-10.384,16.196
			c-3.025-5.738-6.487-11.165-10.384-16.196c-16.949-21.882-39.832-33.933-64.437-33.933c-24.604,0-47.489,12.051-64.437,33.933
			c-3.897,5.031-7.36,10.459-10.384,16.196c-3.024-5.738-6.487-11.165-10.384-16.196c-16.948-21.882-39.833-33.933-64.437-33.933
			s-47.489,12.051-64.437,33.933C25.85,162.346,17,189.716,17,218.667c0,6.342,0.45,12.601,1.282,18.738H0v92.262h16.032
			l14.222,74.667h131.492l14.222-74.667h0.063l14.222,74.667h131.492l14.222-74.667h0.063l14.223,74.667h131.492l14.222-74.667H512
			v-92.262H493.718z M364.923,159.969c11.14-14.382,25.601-22.303,40.72-22.303c15.119,0,29.58,7.921,40.72,22.303
			C458.381,175.487,465,196.331,465,218.667c0,6.401-0.561,12.672-1.62,18.738H347.906c-1.059-6.066-1.62-12.337-1.62-18.738
			C346.286,196.331,352.904,175.487,364.923,159.969z M215.28,159.969c11.14-14.382,25.601-22.303,40.72-22.303
			s29.58,7.921,40.719,22.303c12.019,15.517,18.638,36.363,18.638,58.697c0,6.401-0.561,12.672-1.62,18.738H198.263
			c-1.059-6.066-1.62-12.337-1.62-18.738C196.643,196.331,203.262,175.487,215.28,159.969z M65.637,159.969
			c11.14-14.382,25.601-22.303,40.72-22.303s29.58,7.921,40.72,22.303c12.019,15.517,18.637,36.363,18.637,58.697
			c0,6.401-0.561,12.672-1.62,18.738H48.62c-1.058-6.066-1.62-12.337-1.62-18.738C47,196.331,53.619,175.487,65.637,159.969z
			 M482,299.667h-66v30h49.428l-8.508,44.667h-81.841l-14.223-74.667h-49.714l-14.222,74.667h-81.841l-14.222-74.667h-49.714
			l-14.222,74.667H55.079l-8.508-44.667H96v-30H30v-32.262h452V299.667z"/>
	</g>
</g>
<g>
</g>
<g>
</g>
<g>
</g>
<g>
</g>
<g>
</g>
<g>
</g>
<g>
</g>
<g>
</g>
<g>
</g>
<g>
</g>
<g>
</g>
<g>
</g>
<g>
</g>
<g>
</g>
<g>
</g>
</svg>
